<?xml version="1.0" encoding="utf-8"?>
<!-- Generator: Adobe Illustrator 20.0.0, SVG Export Plug-In . SVG Version: 6.00 Build 0)  -->
<!DOCTYPE svg PUBLIC "-//W3C//DTD SVG 1.1//EN" "http://www.w3.org/Graphics/SVG/1.1/DTD/svg11.dtd">
<svg version="1.1" id="Layer_1" xmlns="http://www.w3.org/2000/svg" xmlns:xlink="http://www.w3.org/1999/xlink" x="0px" y="0px"
	 viewBox="0 0 100 100" enable-background="new 0 0 100 100" xml:space="preserve">
<path fill="none" d="M38.6,63c-0.5,0-1-0.5-1.3-0.9c-0.2-0.5-0.2-1.1,0.1-1.7l8-11.1c-3.5-0.1-6.8-0.4-9.9-0.9
	c-4.4-0.7-8-1.6-10.6-2.7c-0.8-0.3-1.5-0.7-2.1-1.1l-0.8-0.5l0,19.4c0,0.3,0.1,0.5,0.4,0.9c0.3,0.4,0.8,0.8,1.4,1.2
	c1.4,0.8,3.4,1.6,6,2.3c4.3,1.1,10.1,1.8,16.2,2.1L48,63H38.6z"/>
<path fill="none" d="M61.4,54c0.5,0,1,0.4,1.3,0.9c0.2,0.4,0.3,1-0.1,1.6L52.6,70c4.1-0.1,8.1-0.4,11.7-0.9
	c4.2-0.6,7.7-1.5,10.1-2.6c1.5-0.6,2.7-1.4,3.2-2.1c0.3-0.3,0.4-0.6,0.4-0.9l0-18.4L78,44.2l-0.8,0.5c-1.6,1-3.7,1.8-6.5,2.5
	c-4.8,1.2-10.9,2-17.5,2.2L52,54H61.4z"/>
<path fill="none" d="M44.8,79.6c-0.2,0-0.4,0-0.5-0.1l-0.1,0c-0.7-0.4-1-1-0.8-1.7l1.9-6c-3.5-0.1-6.8-0.4-9.9-0.9
	c-4.4-0.7-8-1.6-10.6-2.7c-0.8-0.3-1.5-0.7-2.1-1.1l-0.8-0.5l0,19.4c0,0.3,0.1,0.6,0.4,0.9c0.3,0.4,0.8,0.9,1.4,1.2
	c1.4,0.8,3.4,1.7,6,2.4C35,92,42.4,93,50,93c0,0,0,0,0,0c5,0,10-0.5,14.3-1.2c4.2-0.6,7.7-1.7,10.1-2.8c1.5-0.6,2.7-1.4,3.2-2.1
	c0.3-0.3,0.4-0.6,0.4-0.9l0-18.5L78,66.7l-0.8,0.5c-1.6,1-3.7,1.8-6.5,2.5c-5.3,1.4-12.2,2.2-19.6,2.2L45.9,79
	C45.7,79.3,45.3,79.6,44.8,79.6z"/>
<path fill="none" d="M55.4,37.4c0.6,0.3,0.9,0.9,0.8,1.7L54,47c3.6-0.1,7.2-0.2,10.3-0.7c4.2-0.6,7.7-1.3,10.1-2.3
	c1.5-0.6,2.7-1.4,3.2-2.1c0.3-0.3,0.4-0.6,0.4-0.9l0-20.9l-0.8,0.6c-1.5,1.2-3.7,2.3-6.4,3.2c-5.6,1.9-13,2.9-20.8,2.9
	c-5.1,0-10.2-0.5-14.6-1.3c-4.4-0.8-8-2-10.7-3.5c-0.7-0.4-1.4-0.8-2-1.3l-0.8-0.6l0,20.9c0,0.3,0.1,0.5,0.4,0.8
	c0.3,0.4,0.8,0.7,1.4,1.1c1.4,0.8,3.4,1.5,6,2.2c4.6,1.2,10.8,1.8,17.3,1.9l6.6-9.1C54,37.2,54.8,37,55.4,37.4z"/>
<path fill="none" d="M48,49.4L39.7,61h9c0.4,0,0.8,0,1.2,0.4c0.3,0.4,0.4,0.7,0.3,1.2L47.9,70l-0.6,1.9l-0.9,3l2.2-3L50,70
	c0,0,0,0,0,0l10.3-14h-9c-0.5,0-0.9-0.1-1.2-0.5c-0.2-0.3-0.3-0.6-0.2-1.1l1.4-5.1l0.7-2.4l1.4-5.1L49.7,47L48,49.4z"/>
<path fill="none" d="M76.2,13c-1.4-1.1-3.4-2.2-5.9-3C64.9,8.2,57.6,7,50,7c0,0,0,0,0,0c-5,0-10,0.6-14.3,1.5
	c-4.2,0.8-7.6,2.1-10.1,3.5c-1.6,0.8-2.7,1.8-3.3,2.7c-0.3,0.5-0.4,1-0.4,1.5c0,0.5,0.1,1,0.4,1.5c0.3,0.5,0.8,1.1,1.5,1.6
	c1.4,1.1,3.4,2.1,5.9,3C35.1,23.9,42.4,25,50,25c0,0,0,0,0,0c5,0,10-0.5,14.3-1.3c4.2-0.8,7.6-2,10.1-3.3c1.6-0.8,2.7-1.8,3.3-2.7
	c0.3-0.5,0.4-1,0.4-1.5c0-0.5-0.1-1-0.4-1.5C77.3,14.1,76.8,13.5,76.2,13z"/>
<path fill="#FFFFFF" d="M79.3,13.7c-0.8-1.2-2.1-2.4-4-3.4C72.6,8.8,69,7.7,64.6,6.8C60.2,6,55.1,5.5,50,5.5c-7.9,0-15.2,1-20.8,2.9
	c-2.8,0.9-5,2-6.5,3.2c-0.8,0.7-1.5,1.3-1.9,2.1c-0.5,0.8-0.7,1.6-0.7,2.5V86c0,1,0.4,1.7,0.8,2.1c0.8,1,2,1.8,4,2.7
	c2.7,1.1,6.2,2,10.6,2.7c4.4,0.7,9.5,1,14.6,1c7.8,0,15.2-0.8,20.7-2.2c2.8-0.7,4.9-1.5,6.5-2.5c0.9-0.5,1.5-1,1.9-1.6
	c0.4-0.5,0.7-1.2,0.8-1.8c0-0.1,0-0.2,0-0.3V16.2C80,15.3,79.7,14.5,79.3,13.7z M70.8,47.2c2.8-0.7,4.9-1.5,6.5-2.5l0.8-0.5l0.1,0.8
	l0,18.4c0,0.3-0.1,0.5-0.4,0.9c-0.5,0.7-1.7,1.5-3.2,2.1c-2.5,1.1-6,1.9-10.1,2.6c-3.6,0.5-7.6,0.9-11.7,0.9l-1.4,1.9
	c7.4-0.1,14.3-0.9,19.6-2.2c2.8-0.7,4.9-1.5,6.5-2.5l0.8-0.5l0.1,0.8l0,18.5c0,0.3-0.1,0.5-0.4,0.9c-0.5,0.7-1.7,1.5-3.2,2.1
	c-2.5,1.1-6,2.1-10.1,2.8C60,92.5,55,93,50,93c0,0,0,0,0,0c-7.6,0-15-1-20.3-2.4c-2.5-0.7-4.6-1.5-6-2.4c-0.6-0.4-1.1-0.9-1.4-1.2
	c-0.3-0.3-0.4-0.6-0.4-0.9l0-19.4l0.8,0.5c0.6,0.4,1.3,0.7,2.1,1.1c2.7,1.1,6.2,2,10.6,2.7c3,0.5,6.4,0.8,9.9,0.9l0.6-1.9
	c-6.1-0.2-11.8-0.9-16.2-2.1c-2.5-0.7-4.6-1.4-6-2.3c-0.6-0.4-1.1-0.8-1.4-1.2c-0.2-0.3-0.4-0.6-0.4-0.9l0-19.4l0.8,0.5
	c0.6,0.4,1.3,0.7,2.1,1.1c2.7,1.1,6.2,2,10.6,2.7c3.1,0.5,6.4,0.8,9.9,0.9L47,47c-6.5-0.1-12.7-0.7-17.3-1.9c-2.5-0.7-4.6-1.3-6-2.2
	c-0.6-0.4-1.1-0.7-1.4-1.1c-0.2-0.3-0.4-0.5-0.4-0.8l0-20.9l0.8,0.6c0.6,0.5,1.3,0.9,2,1.3c2.7,1.5,6.3,2.6,10.7,3.5
	c4.4,0.9,9.5,1.3,14.6,1.3c7.9,0,15.2-1,20.8-2.9c2.7-0.9,4.9-2,6.4-3.2l0.8-0.6l0,20.9c0,0.3-0.1,0.5-0.4,0.9
	c-0.5,0.7-1.7,1.5-3.2,2.1c-2.5,1.1-6,1.7-10.1,2.3c-3.2,0.5-6.7,0.7-10.3,0.7l-0.7,2.4C59.9,49.1,66,48.4,70.8,47.2z M77.6,17.6
	c-0.6,0.9-1.7,1.9-3.3,2.7c-2.5,1.4-5.9,2.5-10.1,3.3C60,24.5,55,25,50,25c0,0,0,0,0,0c-7.5,0-14.9-1.1-20.2-2.8
	c-2.5-0.8-4.6-1.9-5.9-3c-0.6-0.5-1.2-1.1-1.5-1.6c-0.3-0.5-0.4-1-0.4-1.5c0-0.5,0.1-1,0.4-1.5c0.6-0.9,1.7-1.9,3.3-2.7
	c2.5-1.4,5.9-2.7,10.1-3.5C40,7.6,45,7,50,7c0,0,0,0,0,0c7.5,0,14.9,1.2,20.2,3c2.5,0.8,4.6,2,5.9,3c0.6,0.5,1.2,1.1,1.5,1.6
	c0.3,0.5,0.4,1,0.4,1.5C78.1,16.6,77.9,17.1,77.6,17.6z"/>
<path fill="#FFFFFF" d="M56.2,39c0.2-0.7-0.1-1.3-0.8-1.7c-0.6-0.4-1.4-0.1-1.8,0.5L47,47l-1.7,2.3l-8,11.1
	c-0.3,0.5-0.3,1.2-0.1,1.7c0.3,0.5,0.8,0.9,1.3,0.9H48l-2.2,6.9l-0.6,1.9l-1.9,6c-0.2,0.7,0,1.3,0.8,1.7l0.1,0
	c0.2,0.1,0.3,0.1,0.5,0.1c0.5,0,0.9-0.3,1.1-0.6l5.3-7.1l1.4-1.9l10-13.5c0.4-0.7,0.3-1.3,0.1-1.6c-0.3-0.5-0.8-0.9-1.3-0.9H52
	l1.3-4.7L54,47L56.2,39z M51.9,47l-0.7,2.4l-1.4,5.1c-0.1,0.4,0,0.8,0.2,1.1c0.2,0.4,0.7,0.5,1.2,0.5h9L50,70c0,0,0,0,0,0l-1.4,1.9
	l-2.2,3l0.9-3l0.6-1.9l2.3-7.4c0.1-0.4,0-0.8-0.3-1.2C49.5,61,49.1,61,48.7,61h-9L48,49.4l1.7-2.4l3.7-5.1L51.9,47z"/>
</svg>
