<?xml version="1.0" encoding="utf-8"?>
<!-- Generator: Adobe Illustrator 20.0.0, SVG Export Plug-In . SVG Version: 6.00 Build 0)  -->
<!DOCTYPE svg PUBLIC "-//W3C//DTD SVG 1.1//EN" "http://www.w3.org/Graphics/SVG/1.1/DTD/svg11.dtd">
<svg version="1.1" id="Layer_1" xmlns="http://www.w3.org/2000/svg" xmlns:xlink="http://www.w3.org/1999/xlink" x="0px" y="0px"
	 viewBox="0 0 100 100" enable-background="new 0 0 100 100" xml:space="preserve">
<circle fill="#FFFFFF" cx="36" cy="40" r="4"/>
<circle fill="#FFFFFF" cx="56" cy="40" r="4"/>
<path fill="#FFFFFF" d="M85,13H27c-3.9,0-7,3.2-7,7v27h-7c-2.7,0-5,2.2-5,5v19.1c0,2.7,2.2,4.9,5,4.9h2.8L14,85.8
	c-0.1,0.4,0.2,0.9,0.5,1.1c0.4,0.2,0.9,0.1,1.2-0.2L26.6,76H42c2.7,0,5-2.2,5-4.9V67h8.4l19.8,19.7c0.3,0.3,0.8,0.3,1.1,0.2
	c0.3-0.2,0.6-0.6,0.6-1L74.9,67H85c3.9,0,7-3.1,7-7V20C92,16.2,88.9,13,85,13z M45,71.1c0,1.6-1.3,2.9-3,2.9H26.2
	c-0.3,0-0.5,0.1-0.7,0.3l-8.9,8.8l1.4-7.9c0-0.2-0.1-0.5-0.3-0.8c-0.2-0.2-0.5-0.4-0.7-0.4h-4c-1.7,0-3-1.3-3-2.9V52
	c0-1.6,1.3-3,3-3h7v11c0,3.9,3.1,7,7,7h18V71.1z M90,60c0,2.8-2.2,5-5,5H73.8c0,0,0,0,0,0c-0.2,0-0.5,0.1-0.7,0.4s-0.3,0.5-0.3,0.7
	l1.8,17.2l-18.1-18c-0.2-0.2-0.4-0.3-0.7-0.3H27c-2.8,0-5-2.2-5-5V20c0-2.8,2.2-5,5-5h58c2.8,0,5,2.2,5,5V60z"/>
<circle fill="#FFFFFF" cx="76" cy="40" r="4"/>
</svg>
