<?xml version="1.0" encoding="utf-8"?>
<!-- Generator: Adobe Illustrator 20.0.0, SVG Export Plug-In . SVG Version: 6.00 Build 0)  -->
<!DOCTYPE svg PUBLIC "-//W3C//DTD SVG 1.1//EN" "http://www.w3.org/Graphics/SVG/1.1/DTD/svg11.dtd">
<svg version="1.1" id="Layer_1" xmlns="http://www.w3.org/2000/svg" xmlns:xlink="http://www.w3.org/1999/xlink" x="0px" y="0px"
	 viewBox="0 0 100 100" enable-background="new 0 0 100 100" xml:space="preserve">
<g transform="translate(-91.214475,-152.15558)">
	<path fill="#FFFFFF" d="M136.4,157.2c-2.6,0-4.8,2.2-4.8,4.8v6.4c-2.6,0.7-5.1,1.8-7.4,3.1l-4.5-4.5c-1.9-1.9-4.9-1.9-6.8,0
		l-6.8,6.8c-1.9,1.9-1.9,4.9,0,6.8l4.6,4.6c-1.3,2.3-2.3,4.8-3.1,7.4H101c-2.6,0-4.8,2.2-4.8,4.8v9.7c0,2.6,2.2,4.8,4.8,4.8h6.4
		c0.7,2.6,1.8,5.1,3.1,7.4l-4.5,4.5c-1.9,1.9-1.9,4.9,0,6.8l6.8,6.8c1.9,1.9,4.9,1.9,6.8,0l4.6-4.6c2.3,1.3,4.8,2.3,7.4,3.1v6.4
		c0,2.6,2.2,4.8,4.8,4.8h9.7c2.6,0,4.8-2.2,4.8-4.8v-6.4c2.6-0.7,5.1-1.8,7.4-3.1l4.5,4.5c1.9,1.9,4.9,1.9,6.8,0l6.8-6.8
		c1.9-1.9,1.9-4.9,0-6.8l-4.6-4.6c1.3-2.3,2.3-4.8,3.1-7.4h6.4c2.6,0,4.8-2.2,4.8-4.8v-9.7c0-2.6-2.2-4.8-4.8-4.8H175
		c-0.7-2.6-1.8-5.1-3.1-7.4l4.5-4.5c1.9-1.9,1.9-4.9,0-6.8l-6.8-6.8c-1.9-1.9-4.9-1.9-6.8,0l-4.6,4.6c-2.3-1.3-4.8-2.3-7.4-3.1V162
		c0-2.6-2.2-4.8-4.8-4.8L136.4,157.2L136.4,157.2z M136.4,159.8h9.7c1.2,0,2.1,0.9,2.1,2.1v7.4c0,0.6,0.4,1.1,1,1.3
		c3,0.8,5.9,2,8.6,3.6c0.5,0.3,1.2,0.2,1.6-0.2l5.3-5.3c0.9-0.9,2.2-0.9,3,0l6.8,6.8c0.9,0.9,0.9,2.2,0,3l-5.3,5.3
		c-0.4,0.4-0.5,1.1-0.2,1.6c1.6,2.7,2.8,5.6,3.6,8.6c0.2,0.6,0.7,1,1.3,1h7.4c1.2,0,2.1,0.9,2.1,2.1v9.7c0,1.2-0.9,2.1-2.1,2.1H174
		c-0.6,0-1.1,0.4-1.3,1c-0.8,3-2,5.9-3.6,8.6c-0.3,0.5-0.2,1.2,0.2,1.6l5.3,5.3c0.9,0.9,0.9,2.2,0,3l-6.8,6.8c-0.9,0.9-2.2,0.9-3,0
		l-5.3-5.3c-0.4-0.4-1.1-0.5-1.6-0.2c-2.7,1.6-5.6,2.8-8.6,3.6c-0.6,0.2-1,0.7-1,1.3v7.4c0,1.2-0.9,2.1-2.1,2.1h-9.7
		c-1.2,0-2.1-0.9-2.1-2.1v-7.4c0-0.6-0.4-1.1-1-1.3c-3-0.8-5.9-2-8.6-3.6c-0.5-0.3-1.2-0.2-1.6,0.2l-5.3,5.3c-0.9,0.9-2.2,0.9-3,0
		l-6.8-6.8c-0.9-0.9-0.9-2.2,0-3l5.3-5.3c0.4-0.4,0.5-1.1,0.2-1.6c-1.6-2.7-2.8-5.6-3.6-8.6c-0.2-0.6-0.7-1-1.3-1H101
		c-1.2,0-2.1-0.9-2.1-2.1v-9.7c0-1.2,0.9-2.1,2.1-2.1h7.4c0.6,0,1.1-0.4,1.3-1c0.8-3,2-5.9,3.6-8.6c0.3-0.5,0.2-1.2-0.2-1.6
		l-5.3-5.3c-0.9-0.9-0.9-2.2,0-3l6.8-6.8c0.9-0.9,2.2-0.9,3,0l5.3,5.3c0.4,0.4,1.1,0.5,1.6,0.2c2.7-1.6,5.6-2.8,8.6-3.6
		c0.6-0.2,1-0.7,1-1.3V162C134.2,160.8,135.2,159.8,136.4,159.8L136.4,159.8z M141.2,184.5c-9.7,0-17.7,7.9-17.7,17.7
		c0,9.7,7.9,17.7,17.7,17.7s17.7-7.9,17.7-17.7C158.9,192.4,151,184.5,141.2,184.5z M141.2,187.1c8.3,0,15,6.7,15,15
		c0,8.3-6.7,15-15,15s-15-6.7-15-15C126.2,193.8,132.9,187.1,141.2,187.1z"/>
</g>
</svg>
