<?xml version="1.0" encoding="utf-8"?>
<!-- Generator: Adobe Illustrator 20.0.0, SVG Export Plug-In . SVG Version: 6.00 Build 0)  -->
<!DOCTYPE svg PUBLIC "-//W3C//DTD SVG 1.1//EN" "http://www.w3.org/Graphics/SVG/1.1/DTD/svg11.dtd">
<svg version="1.1" id="Layer_1" xmlns="http://www.w3.org/2000/svg" xmlns:xlink="http://www.w3.org/1999/xlink" x="0px" y="0px"
	 viewBox="0 0 100 100" enable-background="new 0 0 100 100" xml:space="preserve">
<path fill="#FFFFFF" d="M50.5,66.8c-3.5,0-6.5-2.9-6.5-6.5c0-3.6,2.9-6.5,6.5-6.5s6.5,2.9,6.5,6.5C57,63.9,54,66.8,50.5,66.8z
	 M50.5,55.7c-2.6,0-4.7,2.1-4.7,4.7s2.1,4.7,4.7,4.7s4.7-2.1,4.7-4.7S53.1,55.7,50.5,55.7z M36.7,73.5c0.4-0.4,0.4-0.9,0-1.2
	c-2.8-3.3-4.4-7.5-4.4-11.8c0-4.4,1.6-8.7,4.6-12c0.4-0.4,0.3-0.9,0-1.2c-0.2-0.2-0.4-0.3-0.7-0.3s-0.5,0.1-0.7,0.3
	c-3.2,3.6-5,8.4-5,13.2c0,4.8,1.7,9.5,4.9,13.1c0.1,0.2,0.4,0.3,0.7,0.3C36.3,73.7,36.6,73.7,36.7,73.5z M65.7,73.3
	c3.1-3.6,4.8-8.2,4.8-13c0-4.8-1.7-9.5-5-13.2c-0.1-0.2-0.4-0.3-0.7-0.3c-0.3,0-0.5,0.1-0.7,0.3c-0.4,0.4-0.4,0.9,0,1.3
	c2.9,3.3,4.5,7.6,4.5,12c0,4.3-1.6,8.4-4.3,11.7c-0.3,0.4-0.3,0.9,0,1.2c0.2,0.2,0.4,0.3,0.7,0.3C65.3,73.7,65.5,73.5,65.7,73.3z
	 M60.9,68.5c1.8-2.4,2.8-5.1,2.8-8c0-3-1.1-5.9-2.9-8.3c-0.2-0.2-0.4-0.4-0.8-0.4c-0.3,0-0.5,0.1-0.7,0.3C59,52.5,59,53,59.3,53.3
	c1.6,2,2.5,4.6,2.5,7.2c0,2.5-0.8,4.9-2.4,7c-0.2,0.3-0.2,0.8,0.1,1.2c0.2,0.2,0.4,0.3,0.7,0.3C60.5,68.7,60.8,68.7,60.9,68.5z
	 M41.5,68.6c0.3-0.4,0.4-0.8,0.1-1.2c-1.6-2-2.4-4.4-2.4-7c0-2.6,0.9-5.2,2.6-7.2c0.3-0.4,0.3-0.8-0.1-1.2c-0.2-0.2-0.4-0.3-0.7-0.3
	c-0.3,0-0.5,0.1-0.8,0.4c-2,2.4-3,5.3-3,8.4c0,3,1,5.8,2.8,8.2c0.2,0.3,0.4,0.4,0.8,0.4C41.1,68.9,41.3,68.7,41.5,68.6z"/>
<path fill="#FFFFFF" d="M92.6,92.3H8.4c-1.4,0-2.7-0.7-3.5-2c-0.7-1.3-0.7-2.7,0-4L47,13.3c0.7-1.3,2-2,3.5-2c0,0,0,0,0,0
	c1.4,0,2.7,0.7,3.5,2l42.1,72.9c0.7,1.3,0.7,2.7,0,4C95.4,91.5,94.1,92.3,92.6,92.3z M50.5,13.3c-0.7,0-1.4,0.4-1.7,1L6.7,87.3
	c-0.4,0.6-0.4,1.4,0,2c0.4,0.6,1,1,1.7,1h84.2c0.7,0,1.4-0.4,1.7-1c0.4-0.6,0.4-1.4,0-2L52.2,14.3C51.9,13.7,51.2,13.3,50.5,13.3
	L50.5,13.3z"/>
</svg>
