<?xml version="1.0" encoding="utf-8"?>
<!-- Generator: Adobe Illustrator 20.0.0, SVG Export Plug-In . SVG Version: 6.00 Build 0)  -->
<!DOCTYPE svg PUBLIC "-//W3C//DTD SVG 1.1//EN" "http://www.w3.org/Graphics/SVG/1.1/DTD/svg11.dtd">
<svg version="1.1"
	 id="Layer_1" xmlns:cc="http://creativecommons.org/ns#" xmlns:dc="http://purl.org/dc/elements/1.1/" xmlns:inkscape="http://www.inkscape.org/namespaces/inkscape" xmlns:rdf="http://www.w3.org/1999/02/22-rdf-syntax-ns#" xmlns:sodipodi="http://sodipodi.sourceforge.net/DTD/sodipodi-0.dtd" xmlns:svg="http://www.w3.org/2000/svg"
	 xmlns="http://www.w3.org/2000/svg" xmlns:xlink="http://www.w3.org/1999/xlink" x="0px" y="0px" viewBox="0 0 100.1 100.1"
	 enable-background="new 0 0 100.1 100.1" xml:space="preserve">
<g transform="translate(0,-952.36218)">
	<path fill="#FFFFFF" d="M39.9,1032c-0.3,0-0.5-0.1-0.8-0.2c-0.7-0.4-1.1-1.2-0.8-2l7.4-23.9H30.3c-0.6,0-1.2-0.4-1.5-0.9
		c-0.3-0.6-0.2-1.2,0.1-1.8l25-34.8c0.5-0.7,1.4-0.9,2.1-0.5c0.8,0.4,1.1,1.2,0.9,2l-6.6,24h15.3c0.6,0,1.2,0.4,1.5,0.9
		c0.3,0.6,0.2,1.2-0.2,1.8l-25.8,34.7C40.9,1031.7,40.4,1032,39.9,1032z M30.9,1003.9h15.1c0.5,0,1,0.3,1.4,0.7
		c0.3,0.4,0.4,1,0.3,1.5l-7,22.5L65,995.9H49.9c-0.5,0-1-0.2-1.3-0.7c-0.3-0.4-0.4-1-0.3-1.5l6.3-22.7L30.9,1003.9z M55.6,969.6
		L55.6,969.6C55.6,969.6,55.6,969.6,55.6,969.6z"/>
</g>
</svg>
