<?xml version="1.0" encoding="utf-8"?>
<!-- Generator: Adobe Illustrator 20.0.0, SVG Export Plug-In . SVG Version: 6.00 Build 0)  -->
<!DOCTYPE svg PUBLIC "-//W3C//DTD SVG 1.1//EN" "http://www.w3.org/Graphics/SVG/1.1/DTD/svg11.dtd">
<svg version="1.1" id="Layer_1" xmlns="http://www.w3.org/2000/svg" xmlns:xlink="http://www.w3.org/1999/xlink" x="0px" y="0px"
	 viewBox="0 0 100 100" enable-background="new 0 0 100 100" xml:space="preserve">
<path fill="#FFFFFF" d="M76,72.1H24c-0.6,0-1-0.4-1-1l0,0c0-0.6,0.4-1,1-1h52c0.6,0,1,0.4,1,1l0,0C77,71.6,76.6,72.1,76,72.1z"/>
<path fill="#FFFFFF" d="M76,65.1H24c-0.6,0-1-0.4-1-1l0,0c0-0.6,0.4-1,1-1h52c0.6,0,1,0.4,1,1l0,0C77,64.6,76.6,65.1,76,65.1z"/>
<path fill="#FFFFFF" d="M76,79.1H24c-0.6,0-1-0.4-1-1l0,0c0-0.6,0.4-1,1-1h52c0.6,0,1,0.4,1,1l0,0C77,78.6,76.6,79.1,76,79.1z"/>
<path fill="#FFFFFF" d="M50,49.5c-3.5,0-6.5-2.9-6.5-6.5c0-3.6,2.9-6.5,6.5-6.5s6.5,2.9,6.5,6.5C56.5,46.6,53.5,49.5,50,49.5z
	 M50,38.4c-2.6,0-4.7,2.1-4.7,4.7s2.1,4.7,4.7,4.7s4.7-2.1,4.7-4.7S52.6,38.4,50,38.4z M36.2,56.2c0.4-0.4,0.4-0.9,0-1.2
	c-2.8-3.3-4.4-7.5-4.4-11.8c0-4.4,1.6-8.7,4.6-12c0.4-0.4,0.3-0.9,0-1.2c-0.2-0.2-0.4-0.3-0.7-0.3s-0.5,0.1-0.7,0.3
	c-3.2,3.6-5,8.4-5,13.2c0,4.8,1.7,9.5,4.9,13.1c0.1,0.2,0.4,0.3,0.7,0.3C35.8,56.5,36.1,56.4,36.2,56.2z M65.2,56
	c3.1-3.6,4.8-8.2,4.8-13c0-4.8-1.7-9.5-5-13.2c-0.1-0.2-0.4-0.3-0.7-0.3c-0.3,0-0.5,0.1-0.7,0.3c-0.4,0.4-0.4,0.9,0,1.3
	c2.9,3.3,4.5,7.6,4.5,12c0,4.3-1.6,8.4-4.3,11.7c-0.3,0.4-0.3,0.9,0,1.2c0.2,0.2,0.4,0.3,0.7,0.3C64.8,56.4,65,56.3,65.2,56z
	 M60.4,51.2c1.8-2.4,2.8-5.1,2.8-8c0-3-1.1-5.9-2.9-8.3c-0.2-0.2-0.4-0.4-0.8-0.4c-0.3,0-0.5,0.1-0.7,0.3c-0.4,0.4-0.4,0.8-0.1,1.2
	c1.6,2,2.5,4.6,2.5,7.2c0,2.5-0.8,4.9-2.4,7c-0.2,0.3-0.2,0.8,0.1,1.2c0.2,0.2,0.4,0.3,0.7,0.3C60,51.5,60.3,51.4,60.4,51.2z
	 M41,51.3c0.3-0.4,0.4-0.8,0.1-1.2c-1.6-2-2.4-4.4-2.4-7c0-2.6,0.9-5.2,2.6-7.2c0.3-0.4,0.3-0.8-0.1-1.2c-0.2-0.2-0.4-0.3-0.7-0.3
	c-0.3,0-0.5,0.1-0.8,0.4c-2,2.4-3,5.3-3,8.4c0,3,1,5.8,2.8,8.2c0.2,0.3,0.4,0.4,0.8,0.4C40.6,51.7,40.8,51.5,41,51.3z"/>
<path fill="#FFFFFF" d="M67.9,4l-4.3,20.4c-0.9,2.2,1,4.6,3.3,4.2L91,27L67.9,4z"/>
<path fill="none" d="M11,10v80c0,2.2,1.8,4,4,4h70c2.2,0,4-1.7,4-4V27H68V6H15C12.8,6,11,7.8,11,10z"/>
<path fill="#FFFFFF" d="M89,90c0,2.2-1.8,4-4,4H15c-2.2,0-4-1.7-4-4V10c0-2.2,1.8-4,4-4h53V4H15c-3.3,0-6,2.7-6,6v80
	c0,3.3,2.7,6,6,6h70c3.3,0,6-2.6,6-6V27h-2V90z"/>
</svg>
