<?xml version="1.0" encoding="UTF-8" standalone="no"?>
<svg width="297px" height="68px" viewBox="0 0 297 68" version="1.1" xmlns="http://www.w3.org/2000/svg" xmlns:xlink="http://www.w3.org/1999/xlink">
    <!-- Generator: Sketch 43.2 (39069) - http://www.bohemiancoding.com/sketch -->
    <title>logo</title>
    <desc>Created with Sketch.</desc>
    <defs>
        <polygon id="path-1" points="0 0.112812 0 6.816572 6.703704 6.816572 6.703704 0.112812 1.13841228e-20 0.112812"></polygon>
        <polygon id="path-3" points="6.81898 6.816572 6.81898 0.112812 0.115332 0.112812 0.115332 6.816572 6.81898 6.816572"></polygon>
        <polygon id="path-5" points="10.2 54.4475 57.75898 54.4475 57.75898 12.92 10.2 12.92"></polygon>
    </defs>
    <g id="Page-1" stroke="none" stroke-width="1" fill="none" fill-rule="evenodd">
        <g id="Artboard" transform="translate(-81.000000, -25.000000)">
            <g id="logo" transform="translate(81.000000, 25.000000)">
                <g id="text" transform="translate(97.000000, 18.000000)" fill="#FFFFFF">
                    <path d="M3.76896309,16.3502984 L3.76896309,27.1270621 L8.91764499,27.1270621 C10.345413,27.1270621 11.4782777,26.6577747 12.3158875,25.7181467 C13.1534974,24.7795718 13.572478,23.4598105 13.572478,21.7592138 C13.572478,18.1537382 12.0484007,16.3502984 9.00024605,16.3502984 L3.76896309,16.3502984 Z M3.76896309,13.1832222 L8.60903339,13.1832222 C9.91307557,13.1832222 10.9672056,12.7437697 11.7703691,11.8641629 C12.5735325,10.984907 12.9749385,9.81677782 12.9749385,8.36012636 C12.9749385,6.71147771 12.6111424,5.51246051 11.8835501,4.76377676 C11.1556063,4.01474201 10.0434798,3.64022464 8.54717047,3.64022464 L3.76896309,3.64022464 L3.76896309,13.1832222 Z M-0.000105448155,30.3559144 L-0.000105448155,0.411372411 L8.54717047,0.411372411 C11.2793322,0.411372411 13.3355712,1.07651808 14.715536,2.40610741 C16.0951494,3.73639874 16.7851318,5.73148473 16.7851318,8.39101439 C16.7851318,9.78975079 16.4350439,11.023517 15.7348682,12.0930151 C15.0346924,13.1625132 14.087065,13.992278 12.8926889,14.5816076 C14.2656239,14.99298 15.3538489,15.8360828 16.1570123,17.1112671 C16.9601757,18.3864514 17.3619332,19.9224289 17.3619332,21.7181467 C17.3619332,24.4057564 16.6237961,26.5173745 15.1478735,28.0526501 C13.6715993,29.5886276 11.5675571,30.3559144 8.83539543,30.3559144 L-0.000105448155,30.3559144 Z" id="Fill-1"></path>
                    <polygon id="Fill-4" points="27.3876977 30.3559846 31.1567663 30.3559846 31.1567663 0.411091611 27.3876977 0.411091611"></polygon>
                    <polygon id="Fill-6" points="61.5718453 30.3560197 57.7823902 30.3560197 45.7753603 7.28055458 45.7753603 30.3560197 41.9855536 30.3560197 41.9855536 0.411126711 45.7753603 0.411126711 57.8235149 23.5897859 57.8235149 0.411126711 61.5718453 0.411126711"></polygon>
                    <polygon id="Fill-7" points="91.9046397 30.3560197 88.1151845 30.3560197 76.1081547 7.28055458 76.1081547 30.3560197 72.318348 30.3560197 72.318348 0.411126711 76.1081547 0.411126711 88.1563093 23.5897859 88.1563093 0.411126711 91.9046397 0.411126711"></polygon>
                    <path d="M107.491037,19.2912952 L115.667487,19.2912952 L111.569069,5.67634258 L107.491037,19.2912952 Z M116.635501,22.5201474 L106.502285,22.5201474 L104.175044,30.3558793 L100.303339,30.3558793 L109.96239,0.411337311 L113.195782,0.411337311 L122.875923,30.3558793 L119.003866,30.3558793 L116.635501,22.5201474 Z" id="Fill-8"></path>
                    <path d="M149.975114,20.8337662 C149.810264,24.0422604 148.907276,26.4999649 147.266854,28.2068796 C145.626081,29.9137943 143.309033,30.7674272 140.316063,30.7674272 C137.309033,30.7674272 134.91993,29.625974 133.148752,27.3430677 C131.377575,25.0601615 130.49181,21.9650404 130.49181,18.0573535 L130.49181,12.627729 C130.49181,8.73408213 131.401125,5.65580906 133.220808,3.39326079 C135.040141,1.13106353 137.521687,0.00014040014 140.666151,0.00014040014 C143.562812,0.00014040014 145.80464,0.863601264 147.390228,2.59122499 C148.976169,4.31884872 149.83768,6.79410319 149.975114,10.0159354 L146.164921,10.0159354 C146.00007,7.57578098 145.485483,5.83446823 144.620457,4.79199719 C143.755431,3.75022815 142.437329,3.22899263 140.666151,3.22899263 C138.619754,3.22899263 137.048225,4.02786943 135.949807,5.62492102 C134.851037,7.22267462 134.302004,9.56349596 134.302004,12.648438 L134.302004,18.1394875 C134.302004,21.1700246 134.813427,23.4939979 135.836274,25.1117585 C136.859121,26.7298701 138.352267,27.5385749 140.316063,27.5385749 C142.279156,27.5385749 143.693568,27.0520885 144.558594,26.0780625 C145.42362,25.1050895 145.958946,23.3567568 146.164921,20.8337662 L149.975114,20.8337662 Z" id="Fill-9"></path>
                    <polygon id="Fill-10" points="163.090228 27.1270972 174.850158 27.1270972 174.850158 30.3559495 159.300773 30.3559495 159.300773 0.411407511 163.090228 0.411407511"></polygon>
                    <polygon id="Fill-11" points="197.933427 16.5148122 187.326749 16.5148122 187.326749 27.1269568 199.683866 27.1269568 199.683866 30.3561601 183.558032 30.3561601 183.558032 0.411267111 199.478243 0.411267111 199.478243 3.64011934 187.326749 3.64011934 187.326749 13.28596 197.933427 13.28596"></polygon>
                </g>
                <g id="binny">
                    <circle id="Oval" fill="#FFFFFF" cx="34" cy="34" r="34"></circle>
                    <path d="M22.01362,40.713934 C22.01362,40.713934 11.82246,40.545094 11.82246,35.885054 L11.82246,31.225154 C11.82246,31.225154 11.65404,30.100254 13.10024,30.100254 C14.54644,30.100254 14.70324,31.144794 14.70324,31.144794 C14.70324,31.144794 14.01836,35.202134 14.86186,36.045774 C15.7055,36.889414 21.76974,37.806134 21.76974,37.806134 L22.01362,40.713934 Z" id="Fill-1" fill="#0B2A2D"></path>
                    <g id="Group-5" transform="translate(10.200000, 25.327500)">
                        <mask id="mask-2" fill="white">
                            <use xlink:href="#path-1"></use>
                        </mask>
                        <g id="Clip-4"></g>
                        <path d="M6.703704,3.464692 C6.703704,5.315912 5.203044,6.816572 3.351824,6.816572 C1.500744,6.816572 -5.6e-05,5.315912 -5.6e-05,3.464692 C-5.6e-05,1.613472 1.500744,0.112812 3.351824,0.112812 C5.203044,0.112812 6.703704,1.613472 6.703704,3.464692" id="Fill-3" fill="#0B2A2D" mask="url(#mask-2)"></path>
                    </g>
                    <path d="M45.978344,40.713934 C45.978344,40.713934 56.202404,40.545094 56.202404,35.885054 L56.202404,31.225154 C56.202404,31.225154 56.337924,30.100254 54.891724,30.100254 C53.445524,30.100254 53.272344,31.144794 53.272344,31.144794 C53.272344,31.144794 53.948964,35.202134 53.105324,36.045774 C52.261684,36.889414 46.209904,37.806134 46.209904,37.806134 L45.978344,40.713934 Z" id="Fill-6" fill="#0B2A2D"></path>
                    <g id="Group-10" transform="translate(50.940000, 25.327500)">
                        <mask id="mask-4" fill="white">
                            <use xlink:href="#path-3"></use>
                        </mask>
                        <g id="Clip-9"></g>
                        <path d="M0.115332,3.464692 C0.115332,5.315912 1.615992,6.816572 3.467212,6.816572 C5.318292,6.816572 6.819092,5.315912 6.819092,3.464692 C6.819092,1.613472 5.318292,0.112812 3.467212,0.112812 C1.615992,0.112812 0.115332,1.613472 0.115332,3.464692" id="Fill-8" fill="#0B2A2D" mask="url(#mask-4)"></path>
                    </g>
                    <path d="M33.766256,30.066402 C38.306316,30.066402 42.562876,28.998202 45.751656,27.058642 C46.344556,26.698002 46.885096,26.315802 47.372576,25.915682 L47.475616,24.633562 C46.631696,17.840202 41.820876,12.920042 33.879656,12.920042 C25.615456,12.920042 20.915656,17.987342 20.235956,24.937362 L20.337596,26.058482 C20.778036,26.406802 21.258936,26.741122 21.780856,27.058642 C24.969776,28.998202 29.226196,30.066402 33.766256,30.066402" id="Fill-11" fill="#0B2A2D"></path>
                    <path d="M44.582446,21.283096 C44.582446,25.068276 39.920586,28.136936 34.169806,28.136936 C28.419026,28.136936 23.757166,25.068276 23.757166,21.283096 C23.757166,17.497916 28.419026,13.667656 34.169806,13.667656 C39.920586,13.667656 44.582446,17.497916 44.582446,21.283096" id="Fill-13" fill="#0B2A2D"></path>
                    <path d="M38.860044,20.78037 C38.860044,23.48657 36.666244,25.68037 33.960044,25.68037 C31.253844,25.68037 29.060044,23.48657 29.060044,20.78037 C29.060044,18.07417 31.253844,15.88037 33.960044,15.88037 C36.666244,15.88037 38.860044,18.07417 38.860044,20.78037" id="Fill-15" fill="#FFFFFF"></path>
                    <path d="M36.08733,20.562586 C36.08733,21.737466 35.13491,22.689886 33.96003,22.689886 C32.78515,22.689886 31.83273,21.737466 31.83273,20.562586 C31.83273,19.387706 32.78515,18.435286 33.96003,18.435286 C35.13491,18.435286 36.08733,19.387706 36.08733,20.562586" id="Fill-17" fill="#0B2A2D"></path>
                    <path d="M33.766256,31.673294 C28.935836,31.673294 24.382756,30.521934 20.945756,28.431454 C20.803936,28.345214 20.665616,28.236994 20.528836,28.148374 L20.881496,51.647514 L47.038536,51.647514 L47.202056,28.008374 C47.002556,28.141794 46.797736,28.288094 46.586756,28.416334 C43.149756,30.506814 38.596676,31.673294 33.766256,31.673294" id="Fill-19" fill="#0B2A2D"></path>
                    <path d="M45.751712,27.0586 C42.562792,28.99816 38.306232,30.06636 33.766312,30.06636 C29.226252,30.06636 24.969692,28.99816 21.780772,27.0586 C21.258992,26.74122 20.778092,26.40676 20.337652,26.05844 L20.528892,28.16866 C20.665532,28.25728 20.803992,28.3452 20.945812,28.43144 C24.382812,30.52206 28.935892,31.67328 33.766312,31.67328 C38.596732,31.67328 43.149672,30.52206 46.586812,28.43144 C46.797652,28.3032 47.002472,28.17202 47.202112,28.0386 L47.372632,25.91578 C46.885152,26.3159 46.344472,26.6981 45.751712,27.0586" id="Fill-21" fill="#FFFFFF"></path>
                    <path d="M30.29686,43.175134 L31.04138,43.976914 C31.04138,43.976914 32.35878,43.175134 33.33234,43.175134 C34.30604,43.175134 35.39426,44.062874 35.39426,44.062874 L36.1245,43.175134 C36.1245,43.175134 35.12224,41.943694 33.21068,41.943694 C31.29912,41.943694 30.29686,43.175134 30.29686,43.175134" id="Fill-23" fill="#FFFFFF"></path>
                    <path d="M28.607256,41.48553 L29.380476,42.28731 C29.380476,42.28731 30.984176,40.74101 33.361096,40.74101 C35.737876,40.74101 37.055276,42.28731 37.055276,42.28731 L37.885756,41.39957 C37.885756,41.39957 35.967056,39.50957 33.246436,39.50957 C30.525956,39.50957 28.607256,41.48553 28.607256,41.48553" id="Fill-25" fill="#FFFFFF"></path>
                    <path d="M26.860392,39.76731 L27.690872,40.56909 C27.690872,40.56909 29.924572,38.27813 33.389712,38.27813 C36.854712,38.27813 38.744852,40.56909 38.744852,40.56909 L39.575332,39.71005 C39.575332,39.71005 37.026632,37.07539 33.475532,37.07539 C29.924572,37.07539 26.860392,39.76731 26.860392,39.76731" id="Fill-27" fill="#FFFFFF"></path>
                    <mask id="mask-6" fill="white">
                        <use xlink:href="#path-5"></use>
                    </mask>
                    <g id="Clip-30"></g>
                    <polygon id="Fill-29" fill="#0B2A2D" mask="url(#mask-6)" points="19.34578 54.4475 48.39032 54.4475 48.39032 51.6475 19.34578 51.6475"></polygon>
                </g>
            </g>
        </g>
    </g>
</svg>