<?xml version="1.0" encoding="utf-8"?>
<!-- Generator: Adobe Illustrator 20.0.0, SVG Export Plug-In . SVG Version: 6.00 Build 0)  -->
<!DOCTYPE svg PUBLIC "-//W3C//DTD SVG 1.1//EN" "http://www.w3.org/Graphics/SVG/1.1/DTD/svg11.dtd">
<svg version="1.1" id="Layer_1" xmlns="http://www.w3.org/2000/svg" xmlns:xlink="http://www.w3.org/1999/xlink" x="0px" y="0px"
	 viewBox="0 0 100 100" enable-background="new 0 0 100 100" xml:space="preserve">
<path fill="none" stroke="#FFFFFF" stroke-miterlimit="10" d="M94.4,32.1l-26-26c0,0-0.2-0.2-0.3-0.2H31.2c-0.2,0-0.2,0-0.3,0.2
	l-26.1,26c0,0-0.2,0.2-0.2,0.3v36.8c0,0.2,0,0.2,0.2,0.3l26.1,26.1c0,0,0.2,0.2,0.3,0.2H68c0.2,0,0.2,0,0.3-0.2l26.1-26.1
	c0,0,0.2-0.2,0.2-0.3v-37C94.4,32.3,94.4,32.1,94.4,32.1z M67.7,79.4l-4.9,1.9l-4.9-11.5h9.7v9.6H67.7z M31.4,22.2l4.9-1.9l4.9,11.5
	h-9.7v-9.6H31.4z M67.7,42.7L50.3,50l7.3-17.4h10.1V42.7z M45.1,52.3L31.4,58V43.6l17,7.3L45.1,52.3z M30.5,43.3v15.1l-11.8,5
	l-5-12.7l5-12.7L30.5,43.3z M31.4,59.1l17.4-7.3l-7.3,17.4H31.4V59.1z M53.9,49.3l13.7-5.7V58l-17-7.3L53.9,49.3z M68.5,58.4V43.3
	l11.8-5l5,12.7l-5,12.7L68.5,58.4z M83.7,36l-2.8,1.2l-1.7-4.5h12.3L83.7,36z M80.2,37.5l-11.6,4.9v-9.7h9.6L80.2,37.5z M58.1,31.8
	l4.3-10.3l0.5-1.4l4.9,1.9v9.6L58.1,31.8z M67.7,21.4l-4.5-1.7L67.7,9V21.4z M49.6,49.7l-1.4-3.3l-5.7-13.7h14.4L49.6,49.7z
	 M34.7,16.8l1.2,2.8l-4.5,1.7V9L34.7,16.8z M41.4,32.7L48.7,50l-17.4-7.3v-10H41.4z M30.5,42.4L20.2,38L19,37.5l1.9-4.9h9.6V42.4z
	 M18.2,37.2L7.6,32.7h12.3L18.2,37.2z M17.8,37.9l-4.9,11.8L6.2,33L17.8,37.9z M17.8,63.8l-3.5,1.4l-8.2,3.5L12.9,52L17.8,63.8z
	 M15.5,65.7l2.8-1.2L20,69H7.7L15.5,65.7z M19,64.3l11.5-4.9v9.7h-9.6L19,64.3z M41.1,69.8l-4.3,10.3l-0.5,1.4l-4.9-1.9V70
	L41.1,69.8z M31.4,80.4l4.5,1.7l-4.5,10.6C31.4,92.7,31.4,80.4,31.4,80.4z M49.6,51.9l1.4,3.3L56.7,69H42.3L49.6,51.9z M63.3,82.2
	l4.5-1.7v12.3L64.5,85L63.3,82.2z M57.8,69l-7.3-17.4l17.4,7.3V69H57.8z M68.5,59.4l10.3,4.3l1.4,0.5L78.1,69h-9.6V59.4z M80.9,64.6
	l10.6,4.5H79.1L80.9,64.6z M81.2,63.8L86.1,52l6.8,16.7L81.2,63.8z M81.2,37.9l3.5-1.4l8.2-3.5l-6.8,16.7L81.2,37.9z M78.8,31.8
	l-2.4-6.1l15.1,6.1H78.8z M77.7,31.8h-9.2v-9.2l6.6,2.6L77.7,31.8z M68.5,21.7V9l6.1,15.1L68.5,21.7z M62.5,19.1l-11.8-4.9l16.7-6.8
	L62.5,19.1z M62.1,20l-5,11.8H42L37,20l12.7-5L62.1,20z M36.6,19.1l-1.4-3.5l-3.5-8.2l16.7,6.8L36.6,19.1z M30.5,21.7l-6.1,2.4
	L30.5,9V21.7z M30.5,22.6v9.2h-9.2l2.6-6.6L30.5,22.6z M20.4,31.8H7.7l15.1-6.1L20.4,31.8z M12.6,50.9L5.5,68.6V33.2L12.6,50.9z
	 M20.4,69.8l2.4,6.1L7.7,69.8H20.4z M21.3,69.8h9.2V79l-6.6-2.6L21.3,69.8z M30.5,80.1v12.7l-6.1-15.1L30.5,80.1z M36.6,82.5
	l11.8,4.9l-16.7,6.8L36.6,82.5z M36.9,81.7l5-11.8H57l5,11.8l-12.7,5L36.9,81.7z M62.5,82.5l1.4,3.5l3.5,8.2l-16.7-6.8L62.5,82.5z
	 M68.5,80.1l6.1-2.4l-6.1,15.1V80.1z M68.5,79v-9.2h9.2l-2.6,6.6L68.5,79z M78.8,69.8h12.7l-15.1,6.1L78.8,69.8z M86.4,50.9
	l7.1-17.7v35.4L86.4,50.9z M75.8,24.5L69.1,8l23.3,23.3L75.8,24.5z M49.6,13.9L31.9,6.8h35.4L49.6,13.9z M23.2,24.5L6.7,31.3L30,8
	L23.2,24.5z M23.2,77.1L30,93.6L6.7,70.4L23.2,77.1z M49.6,87.7l17.7,7.1H31.9L49.6,87.7z M75.8,77.1l16.5-6.8L69.1,93.6L75.8,77.1z
	"/>
</svg>
