<?xml version="1.0" encoding="utf-8"?>
<!-- Generator: Adobe Illustrator 20.0.0, SVG Export Plug-In . SVG Version: 6.00 Build 0)  -->
<!DOCTYPE svg PUBLIC "-//W3C//DTD SVG 1.1//EN" "http://www.w3.org/Graphics/SVG/1.1/DTD/svg11.dtd">
<svg version="1.1" id="Layer_1" xmlns="http://www.w3.org/2000/svg" xmlns:xlink="http://www.w3.org/1999/xlink" x="0px" y="0px"
	 viewBox="0 0 100 100" enable-background="new 0 0 100 100" xml:space="preserve">
<path fill="#FFFFFF" d="M75.4,40.1l-15-15c0,0-0.1-0.1-0.2-0.1H39c-0.1,0-0.1,0-0.2,0.1l-15,15c0,0-0.1,0.1-0.1,0.2v21.2
	c0,0.1,0,0.1,0.1,0.2l15,15c0,0,0.1,0.1,0.2,0.1h21.2c0.1,0,0.1,0,0.2-0.1l15-15c0,0,0.1-0.1,0.1-0.2V40.2
	C75.4,40.2,75.4,40.1,75.4,40.1z M60,67.3l-2.8,1.1l-2.8-6.6H60V67.3z M39.1,34.4l2.8-1.1l2.8,6.6h-5.6V34.4z M60,46.2l-10,4.2
	l4.2-10H60L60,46.2z M47,51.7L39.1,55v-8.3l9.8,4.2L47,51.7z M38.6,46.5v8.7l-6.8,2.9l-2.9-7.3l2.9-7.3L38.6,46.5z M39.1,55.6
	l10-4.2l-4.2,10h-5.8V55.6z M52.1,50l7.9-3.3V55l-9.8-4.2L52.1,50z M60.5,55.2v-8.7l6.8-2.9l2.9,7.3l-2.9,7.3L60.5,55.2z M69.2,42.3
	L67.6,43l-1-2.6h7.1L69.2,42.3z M67.2,43.2L60.5,46v-5.6H66L67.2,43.2z M54.5,39.9l2.5-5.9l0.3-0.8l2.8,1.1v5.5L54.5,39.9z M60,33.9
	l-2.6-1l2.6-6.1V33.9z M49.6,50.2l-0.8-1.9l-3.3-7.9h8.3L49.6,50.2z M41,31.3l0.7,1.6l-2.6,1v-7.1L41,31.3z M44.9,40.4l4.2,10
	l-10-4.2v-5.8H44.9z M38.6,46l-5.9-2.5L32,43.2l1.1-2.8h5.5L38.6,46z M31.5,43l-6.1-2.6h7.1L31.5,43z M31.3,43.4l-2.8,6.8l-3.9-9.6
	L31.3,43.4z M31.3,58.3l-2,0.8l-4.7,2l3.9-9.6L31.3,58.3z M30,59.4l1.6-0.7l1,2.6h-7.1L30,59.4z M32,58.6l6.6-2.8v5.6h-5.5L32,58.6z
	 M44.7,61.8l-2.5,5.9l-0.3,0.8l-2.8-1.1v-5.5L44.7,61.8z M39.1,67.9l2.6,1L39.1,75V67.9z M49.6,51.5l0.8,1.9l3.3,7.9h-8.3L49.6,51.5
	z M57.5,68.9l2.6-1V75l-1.9-4.5L57.5,68.9z M54.3,61.3l-4.2-10l10,4.2v5.8L54.3,61.3z M60.5,55.8l5.9,2.5l0.8,0.3L66,61.3h-5.5
	L60.5,55.8z M67.6,58.8l6.1,2.6h-7.1L67.6,58.8z M67.8,58.3l2.8-6.8l3.9,9.6L67.8,58.3z M67.8,43.4l2-0.8l4.7-2l-3.9,9.6L67.8,43.4z
	 M66.4,39.9l-1.4-3.5l8.7,3.5H66.4z M65.8,39.9h-5.3v-5.3l3.8,1.5L65.8,39.9z M60.5,34.1v-7.3l3.5,8.7L60.5,34.1z M57,32.6l-6.8-2.8
	l9.6-3.9L57,32.6z M56.8,33.1l-2.9,6.8h-8.7l-2.9-6.8l7.3-2.9L56.8,33.1z M42.1,32.6l-0.8-2l-2-4.7l9.6,3.9L42.1,32.6z M38.6,34.1
	l-3.5,1.4l3.5-8.7V34.1z M38.6,34.6v5.3h-5.3l1.5-3.8L38.6,34.6z M32.8,39.9h-7.3l8.7-3.5L32.8,39.9z M28.3,50.9l-4.1,10.2V40.7
	L28.3,50.9z M32.8,61.8l1.4,3.5l-8.7-3.5H32.8z M33.3,61.8h5.3v5.3l-3.8-1.5L33.3,61.8z M38.6,67.7v7.3l-3.5-8.7L38.6,67.7z
	 M42.1,69.1l6.8,2.8l-9.6,3.9L42.1,69.1z M42.3,68.6l2.9-6.8h8.7l2.9,6.8l-7.3,2.9L42.3,68.6z M57,69.1l0.8,2l2,4.7l-9.6-3.9
	L57,69.1z M60.5,67.7l3.5-1.4l-3.5,8.7L60.5,67.7z M60.5,67.1v-5.3h5.3l-1.5,3.8L60.5,67.1z M66.4,61.8h7.3l-8.7,3.5L66.4,61.8z
	 M70.8,50.9l4.1-10.2v20.4L70.8,50.9z M64.7,35.7l-3.9-9.5l13.4,13.4L64.7,35.7z M49.6,29.6l-10.2-4.1h20.4L49.6,29.6z M34.4,35.7
	l-9.5,3.9l13.4-13.4L34.4,35.7z M34.4,66l3.9,9.5L24.9,62.1L34.4,66z M49.6,72.1l10.2,4.1H39.4L49.6,72.1z M64.7,66l9.5-3.9
	L60.8,75.5L64.7,66z"/>
</svg>
