<?xml version="1.0" encoding="utf-8"?>
<!-- Generator: Adobe Illustrator 20.0.0, SVG Export Plug-In . SVG Version: 6.00 Build 0)  -->
<!DOCTYPE svg PUBLIC "-//W3C//DTD SVG 1.1//EN" "http://www.w3.org/Graphics/SVG/1.1/DTD/svg11.dtd">
<svg version="1.1" id="Layer_1" xmlns="http://www.w3.org/2000/svg" xmlns:xlink="http://www.w3.org/1999/xlink" x="0px" y="0px"
	 viewBox="0 0 100 100" enable-background="new 0 0 100 100" xml:space="preserve">
<path fill="#FFFFFF" d="M50.5,63.3c-7.1,0-13-5.8-13-13s5.8-13,13-13s13,5.8,13,13S57.6,63.3,50.5,63.3z M50.5,41
	c-5.2,0-9.4,4.2-9.4,9.4s4.2,9.4,9.4,9.4s9.4-4.2,9.4-9.4S55.7,41,50.5,41z M22.8,76.8c0.7-0.7,0.7-1.8,0.1-2.5
	C17.2,67.7,14,59.2,14,50.5c0-8.9,3.3-17.5,9.2-24.2c0.7-0.7,0.6-1.8,0-2.5c-0.4-0.4-0.8-0.6-1.4-0.6c-0.5,0-1,0.2-1.4,0.6
	c-6.5,7.4-10.1,16.9-10.1,26.7c0,9.6,3.5,19,9.8,26.3c0.3,0.4,0.8,0.6,1.4,0.6C22,77.3,22.5,77.2,22.8,76.8z M81.1,76.4
	c6.2-7.3,9.6-16.5,9.6-26.1c0-9.7-3.5-19.1-10-26.5c-0.3-0.4-0.8-0.6-1.4-0.6c-0.5,0-1,0.2-1.3,0.6c-0.7,0.7-0.7,1.8-0.1,2.6
	c5.8,6.6,9,15.2,9,24c0,8.6-3.1,17-8.7,23.6c-0.6,0.8-0.6,1.8,0.1,2.5c0.4,0.4,0.8,0.6,1.3,0.6C80.2,77.2,80.7,76.9,81.1,76.4z
	 M71.5,66.7C75.1,62,77,56.4,77,50.5c0-6-2.1-11.9-5.9-16.6c-0.4-0.4-0.9-0.7-1.5-0.7c-0.5,0-1,0.2-1.3,0.6
	c-0.7,0.7-0.7,1.7-0.2,2.4c3.3,4.1,5.1,9.2,5.1,14.4c0,5.1-1.7,9.9-4.8,14c-0.5,0.7-0.5,1.7,0.2,2.4c0.4,0.4,0.8,0.6,1.3,0.6
	C70.6,67.3,71.2,67.2,71.5,66.7z M32.4,66.9c0.6-0.7,0.7-1.7,0.2-2.4c-3.2-4.1-4.9-8.9-4.9-14.1c0-5.3,1.8-10.4,5.2-14.5
	c0.6-0.7,0.5-1.7-0.2-2.4c-0.4-0.4-0.8-0.6-1.3-0.6c-0.6,0-1.1,0.3-1.5,0.7c-3.9,4.7-6,10.7-6,16.8c0,6,2,11.7,5.7,16.4
	c0.4,0.5,0.9,0.7,1.5,0.7C31.6,67.6,32,67.3,32.4,66.9z"/>
</svg>
