<?xml version="1.0" encoding="utf-8"?>
<!-- Generator: Adobe Illustrator 20.0.0, SVG Export Plug-In . SVG Version: 6.00 Build 0)  -->
<!DOCTYPE svg PUBLIC "-//W3C//DTD SVG 1.1//EN" "http://www.w3.org/Graphics/SVG/1.1/DTD/svg11.dtd">
<svg version="1.1" id="Layer_1" xmlns="http://www.w3.org/2000/svg" xmlns:xlink="http://www.w3.org/1999/xlink" x="0px" y="0px"
	 viewBox="0 0 100 100" enable-background="new 0 0 100 100" xml:space="preserve">
<path fill="#FFFFFF" d="M83.9,20.9c-0.2-0.3-0.7-0.4-1.2-0.4c-0.5,0-0.8,0.2-1.1,0.5c-0.6,0.6-0.7,1.6-0.1,2.3
	c6.6,7.5,10.2,17.2,10.2,27.2c0,9.7-3.5,19.2-9.8,26.7c-0.5,0.7-0.5,1.5,0.1,2.1c0.8,0.8,1.7,0.7,2.5-0.2l0,0
	C91.2,71.1,95,60.8,95,50.3C95,39.5,91.1,29.1,83.9,20.9z"/>
<path fill="#FFFFFF" d="M19.2,77.5C12.7,70,9.1,60.4,9.1,50.6c0-10,3.7-19.8,10.4-27.4c0.7-0.7,0.5-1.6,0-2.1
	c-0.3-0.4-0.6-0.5-1.1-0.5c-0.5,0-0.9,0.2-1.2,0.6C10,29.1,6,39.6,6,50.5c0,10.7,3.9,21.1,10.9,29.1c0.2,0.3,0.7,0.5,1.2,0.5
	c0.4-0.1,0.8-0.2,1-0.4l0-0.1C19.7,79,19.8,78.2,19.2,77.5z"/>
<path fill="#FFFFFF" d="M50.5,36.2c-7.8,0-14.1,6.3-14.1,14.1c0,7.8,6.3,14.1,14.1,14.1c7.8,0,14.1-6.3,14.1-14.1
	C64.6,42.5,58.3,36.2,50.5,36.2z M50.5,61.4c-6.1,0-11-4.9-11-11c0-6.1,4.9-11,11-11s11,4.9,11,11C61.5,56.5,56.6,61.4,50.5,61.4z"
	/>
<path fill="#FFFFFF" d="M29,31.3c-0.5,0-0.9,0.2-1.3,0.7c-4.2,5.1-6.6,11.6-6.6,18.4c0,6.6,2.2,12.9,6.3,18.1
	c0.3,0.4,0.7,0.6,1.3,0.6c0.4,0.1,0.7-0.1,1.1-0.5c0.5-0.6,0.6-1.5,0.2-2.1c-3.7-4.7-5.6-10.2-5.6-16.1c0-6,2.1-11.9,5.9-16.5
	c0.5-0.6,0.5-1.4-0.2-2C29.8,31.5,29.4,31.3,29,31.3z"/>
<path fill="#FFFFFF" d="M73.2,32.3c-0.2-0.2-0.7-0.6-1.3-0.6c-0.5,0-0.8,0.2-1.1,0.5c-0.6,0.6-0.7,1.4-0.2,2.1
	c3.7,4.6,5.8,10.5,5.8,16.4c0,5.7-1.9,11.3-5.5,16c-0.3,0.5-0.4,1.3,0.3,1.9c0.3,0.3,0.7,0.5,1,0.5c0.2-0.1,0.4-0.2,0.6-0.3
	c0.4-0.2,0.6-0.3,0.8-0.5l0,0c4-5.3,6.1-11.4,6.1-17.8C79.7,44.1,77.4,37.6,73.2,32.3z"/>
</svg>
